<svg xmlns="http://www.w3.org/2000/svg" viewBox="0 0 48 48">
  <defs>
    <style>
      .cls-1{fill:#fff;}
    </style>
  </defs>
  <rect width="48" height="48" fill="black"/>
  <g id="Layer_2" data-name="Layer 2">
    <g id="_1" data-name="1">
      <path class="cls-1" d="M27 48h-6a1 1 0 0 1-1-.87l-.48-3.64a19.94 19.94 0 0 1-6.16-2.55l-2.9 2.24a1 1 0 0 1-1.32-.09l-4.23-4.24a1 1 0 0 1-.09-1.32l2.24-2.9a19.94 19.94 0 0 1-2.55-6.16L.87 28A1 1 0 0 1 0 27v-6a1 1 0 0 1 .87-1l3.64-.48a19.94 19.94 0 0 1 2.55-6.16l-2.24-2.9a1 1 0 0 1 .09-1.32l4.24-4.23a1 1 0 0 1 1.32-.09l2.9 2.24a19.94 19.94 0 0 1 6.16-2.55L20 .87A1 1 0 0 1 21 0h6a1 1 0 0 1 1 .87l.48 3.64a19.94 19.94 0 0 1 6.16 2.55l2.9-2.24a1 1 0 0 1 1.32.09l4.24 4.24a1 1 0 0 1 .09 1.32l-2.24 2.9a19.84 19.84 0 0 1 2.55 6.16l3.64.48A1 1 0 0 1 48 21v6a1 1 0 0 1-.87 1l-3.64.48a19.94 19.94 0 0 1-2.55 6.16l2.24 2.9a1 1 0 0 1-.09 1.32l-4.24 4.24a1 1 0 0 1-1.32.09l-2.9-2.24a19.94 19.94 0 0 1-6.16 2.55L28 47.13a1 1 0 0 1-1 .87zm-5.12-2h4.24l.46-3.48a1 1 0 0 1 .8-.85 17.81 17.81 0 0 0 6.73-2.78 1 1 0 0 1 1.17 0l2.78 2.14 3-3-2.14-2.78a1 1 0 0 1 0-1.17 17.81 17.81 0 0 0 2.78-6.73 1 1 0 0 1 .86-.8l3.44-.43v-4.24l-3.47-.46a1 1 0 0 1-.86-.8 17.74 17.74 0 0 0-2.78-6.73 1 1 0 0 1 0-1.17l2.14-2.78-3-3-2.75 2.14a1 1 0 0 1-1.17 0 17.81 17.81 0 0 0-6.73-2.78 1 1 0 0 1-.8-.85L26.12 2h-4.24l-.46 3.48a1 1 0 0 1-.8.85 17.81 17.81 0 0 0-6.73 2.78 1 1 0 0 1-1.17 0L9.94 6.94l-3 3 2.14 2.78a1 1 0 0 1 0 1.17 17.81 17.81 0 0 0-2.78 6.73 1 1 0 0 1-.86.8L2 21.88v4.24l3.47.46a1 1 0 0 1 .86.8 17.81 17.81 0 0 0 2.78 6.73 1 1 0 0 1 0 1.17l-2.17 2.78 3 3 2.78-2.14a1 1 0 0 1 1.17 0 17.81 17.81 0 0 0 6.73 2.78 1 1 0 0 1 .8.85z"/>
      <path class="cls-1" d="M24 38a14 14 0 1 1 14-14 14 14 0 0 1-14 14zm0-26a12 12 0 1 0 12 12 12 12 0 0 0-12-12z"/>
      <path class="cls-1" d="m26.14 29.51-3-5a1 1 0 0 1 .06-1.11l6-8 1.6 1.2-5.6 7.46 2.66 4.43zM14 23h2v2h-2zM23 32h2v2h-2zM23 14h2v2h-2zM32 23h2v2h-2z"/>
    </g>
  </g>
</svg>
